# xmcd
#
# Track frame offsets: 
#        150
#        11595
#        24052
#        35220
#        51289
#        65615
#        83885
#        96767
#        108267
#        120752
#        135737
#        147300
#
# Disc length: 2175 seconds
#
# Revision: 3
# Processed by: cddbd v1.5.2PL0 Copyright (c) Steve Scherf et al.
# Submitted via: ExactAudioCopy v0.99pb4
#
DISCID=99087d0c
DTITLE=Marty Robbins - The Many Sides Of Marty Robbins - Disc 1
DYEAR=1900
DGENRE=Country
TTITLE0=The Story Of My Life
TTITLE1=It's Your World
TTITLE2=Begging To You
TTITLE3=One Of These Days
TTITLE4=Don't Worry
TTITLE5=Lord You Gave Me A Mountain
TTITLE6=Devil Woman
TTITLE7=Ribbon Of Darkness
TTITLE8=Tonight Carmen
TTITLE9=I Walk Alone
TTITLE10=Among My Souvenirs
TTITLE11=My Woman, My Woman, My Wife
EXTD=
EXTT0=
EXTT1=
EXTT2=
EXTT3=
EXTT4=
EXTT5=
EXTT6=
EXTT7=
EXTT8=
EXTT9=
EXTT10=
EXTT11=
PLAYORDER=
